<mxfile host="app.diagrams.net" modified="2022-02-16T19:24:13.454Z" agent="5.0 (Windows NT 10.0; Win64; x64) AppleWebKit/537.36 (KHTML, like Gecko) Chrome/98.0.4758.102 Safari/537.36" etag="mYwzttm30L-Kb3vZfYoA" version="16.5.6" type="github">
  <diagram id="JSSCa7bkJR9PmikTlj4o" name="Page-1">
    <mxGraphModel dx="2333" dy="781" grid="1" gridSize="10" guides="1" tooltips="1" connect="1" arrows="1" fold="1" page="1" pageScale="1" pageWidth="850" pageHeight="1100" math="0" shadow="0">
      <root>
        <mxCell id="0" />
        <mxCell id="1" parent="0" />
        <mxCell id="2QfLTyrHY2M2lkCo5Ux--4" value="" style="endArrow=none;dashed=1;html=1;rounded=0;" parent="1" edge="1">
          <mxGeometry width="50" height="50" relative="1" as="geometry">
            <mxPoint x="439.5" y="410" as="sourcePoint" />
            <mxPoint x="439.5" y="90" as="targetPoint" />
          </mxGeometry>
        </mxCell>
        <mxCell id="2QfLTyrHY2M2lkCo5Ux--1" value="Internet Host&lt;br&gt;IP: 10.10.0.40" style="rounded=0;whiteSpace=wrap;html=1;fillColor=#dae8fc;strokeColor=#6c8ebf;" parent="1" vertex="1">
          <mxGeometry x="-60" y="215" width="120" height="60" as="geometry" />
        </mxCell>
        <mxCell id="2QfLTyrHY2M2lkCo5Ux--2" value="Tools" style="text;html=1;align=center;verticalAlign=middle;resizable=0;points=[];autosize=1;strokeColor=none;fillColor=none;" parent="1" vertex="1">
          <mxGeometry x="-20" y="180" width="40" height="20" as="geometry" />
        </mxCell>
        <mxCell id="2QfLTyrHY2M2lkCo5Ux--3" value="T3: Atropia&lt;br&gt;Internal: 10.3.0.10&lt;br&gt;External: 10.50.29.96" style="rounded=0;whiteSpace=wrap;html=1;fillColor=#f8cecc;strokeColor=#b85450;" parent="1" vertex="1">
          <mxGeometry x="380" y="210" width="120" height="70" as="geometry" />
        </mxCell>
        <mxCell id="2QfLTyrHY2M2lkCo5Ux--5" value="EXTERNAL" style="text;html=1;align=center;verticalAlign=middle;resizable=0;points=[];autosize=1;strokeColor=none;fillColor=none;" parent="1" vertex="1">
          <mxGeometry x="160" y="80" width="80" height="20" as="geometry" />
        </mxCell>
        <mxCell id="2QfLTyrHY2M2lkCo5Ux--6" value="INTERNAL" style="text;html=1;align=center;verticalAlign=middle;resizable=0;points=[];autosize=1;strokeColor=none;fillColor=none;" parent="1" vertex="1">
          <mxGeometry x="585" y="80" width="70" height="20" as="geometry" />
        </mxCell>
        <mxCell id="2QfLTyrHY2M2lkCo5Ux--7" value="T4: Pineland&lt;br&gt;IP: 10.50.21.23" style="rounded=0;whiteSpace=wrap;html=1;fillColor=#f8cecc;strokeColor=#b85450;" parent="1" vertex="1">
          <mxGeometry x="785" y="215" width="120" height="60" as="geometry" />
        </mxCell>
        <mxCell id="2QfLTyrHY2M2lkCo5Ux--8" value="TARGET:&lt;br&gt;10.2.0.2" style="rounded=0;whiteSpace=wrap;html=1;fillColor=#fff2cc;strokeColor=#d6b656;" parent="1" vertex="1">
          <mxGeometry x="1020" y="215" width="120" height="60" as="geometry" />
        </mxCell>
        <mxCell id="2QfLTyrHY2M2lkCo5Ux--10" value="" style="endArrow=classic;html=1;rounded=0;exitX=1;exitY=0.5;exitDx=0;exitDy=0;entryX=0;entryY=0.5;entryDx=0;entryDy=0;startArrow=none;" parent="1" source="2QfLTyrHY2M2lkCo5Ux--22" target="2QfLTyrHY2M2lkCo5Ux--3" edge="1">
          <mxGeometry width="50" height="50" relative="1" as="geometry">
            <mxPoint x="400" y="230" as="sourcePoint" />
            <mxPoint x="450" y="180" as="targetPoint" />
          </mxGeometry>
        </mxCell>
        <mxCell id="2QfLTyrHY2M2lkCo5Ux--11" value="Access" style="text;html=1;align=center;verticalAlign=middle;resizable=0;points=[];autosize=1;strokeColor=none;fillColor=none;" parent="1" vertex="1">
          <mxGeometry x="820" y="180" width="50" height="20" as="geometry" />
        </mxCell>
        <mxCell id="2QfLTyrHY2M2lkCo5Ux--12" value="" style="endArrow=classic;html=1;rounded=0;exitX=0;exitY=0.5;exitDx=0;exitDy=0;entryX=1;entryY=0.5;entryDx=0;entryDy=0;startArrow=none;" parent="1" source="2QfLTyrHY2M2lkCo5Ux--14" target="2QfLTyrHY2M2lkCo5Ux--3" edge="1">
          <mxGeometry width="50" height="50" relative="1" as="geometry">
            <mxPoint x="400" y="220" as="sourcePoint" />
            <mxPoint x="450" y="170" as="targetPoint" />
          </mxGeometry>
        </mxCell>
        <mxCell id="2QfLTyrHY2M2lkCo5Ux--13" value="" style="endArrow=classic;html=1;rounded=0;exitX=1;exitY=0.5;exitDx=0;exitDy=0;" parent="1" source="2QfLTyrHY2M2lkCo5Ux--7" target="2QfLTyrHY2M2lkCo5Ux--8" edge="1">
          <mxGeometry width="50" height="50" relative="1" as="geometry">
            <mxPoint x="400" y="220" as="sourcePoint" />
            <mxPoint x="450" y="170" as="targetPoint" />
          </mxGeometry>
        </mxCell>
        <mxCell id="2QfLTyrHY2M2lkCo5Ux--17" value="31101" style="whiteSpace=wrap;html=1;aspect=fixed;fillColor=#ffe6cc;strokeColor=#d79b00;" parent="1" vertex="1">
          <mxGeometry x="480" y="270" width="40" height="40" as="geometry" />
        </mxCell>
        <mxCell id="2QfLTyrHY2M2lkCo5Ux--18" value="22" style="whiteSpace=wrap;html=1;aspect=fixed;fillColor=#ffe6cc;strokeColor=#d79b00;" parent="1" vertex="1">
          <mxGeometry x="770" y="270" width="40" height="40" as="geometry" />
        </mxCell>
        <mxCell id="2QfLTyrHY2M2lkCo5Ux--14" value="Telnet into T4 then&lt;br&gt;ssh -R 31101:localhost:22 net3_student11@10.3.0.10 -NT" style="shape=process;whiteSpace=wrap;html=1;backgroundOutline=1;align=left;" parent="1" vertex="1">
          <mxGeometry x="540" y="215" width="220" height="60" as="geometry" />
        </mxCell>
        <mxCell id="2QfLTyrHY2M2lkCo5Ux--19" value="" style="endArrow=none;html=1;rounded=0;exitX=0;exitY=0.5;exitDx=0;exitDy=0;entryX=1;entryY=0.5;entryDx=0;entryDy=0;" parent="1" source="2QfLTyrHY2M2lkCo5Ux--7" target="2QfLTyrHY2M2lkCo5Ux--14" edge="1">
          <mxGeometry width="50" height="50" relative="1" as="geometry">
            <mxPoint x="785" y="245" as="sourcePoint" />
            <mxPoint x="500" y="245" as="targetPoint" />
          </mxGeometry>
        </mxCell>
        <mxCell id="2QfLTyrHY2M2lkCo5Ux--21" value="1" style="ellipse;whiteSpace=wrap;html=1;aspect=fixed;fillColor=#d5e8d4;strokeColor=#82b366;" parent="1" vertex="1">
          <mxGeometry x="530" y="200" width="30" height="30" as="geometry" />
        </mxCell>
        <mxCell id="2QfLTyrHY2M2lkCo5Ux--22" value="from IH: ssh net3_student11@10.50.29.96 -D 9050 -NT" style="shape=process;whiteSpace=wrap;html=1;backgroundOutline=1;align=left;" parent="1" vertex="1">
          <mxGeometry x="100" y="215" width="220" height="60" as="geometry" />
        </mxCell>
        <mxCell id="2QfLTyrHY2M2lkCo5Ux--23" value="" style="endArrow=none;html=1;rounded=0;exitX=1;exitY=0.5;exitDx=0;exitDy=0;entryX=0;entryY=0.5;entryDx=0;entryDy=0;" parent="1" source="2QfLTyrHY2M2lkCo5Ux--1" target="2QfLTyrHY2M2lkCo5Ux--22" edge="1">
          <mxGeometry width="50" height="50" relative="1" as="geometry">
            <mxPoint x="180" y="245" as="sourcePoint" />
            <mxPoint x="380" y="245" as="targetPoint" />
          </mxGeometry>
        </mxCell>
        <mxCell id="2QfLTyrHY2M2lkCo5Ux--24" value="2" style="ellipse;whiteSpace=wrap;html=1;aspect=fixed;fillColor=#d5e8d4;strokeColor=#82b366;" parent="1" vertex="1">
          <mxGeometry x="90" y="200" width="30" height="30" as="geometry" />
        </mxCell>
        <mxCell id="2QfLTyrHY2M2lkCo5Ux--29" value="&lt;h1&gt;Scenario: Dynamic Tunneling&lt;/h1&gt;&lt;span&gt;We can access T4 as an insider (but only via Telnet, not SSH)&lt;/span&gt;&lt;br&gt;&lt;span&gt;We want to access information on TARGET via SSH tunneling&lt;/span&gt;&lt;br&gt;&lt;span&gt;Tools are on out internet host but access comes from T4: Pineland&lt;br&gt;We want to get all the way to target, but we don&#39;t know what ports are open so we need a dynamic tunnel&amp;nbsp;&lt;/span&gt;" style="text;html=1;strokeColor=none;fillColor=none;spacing=5;spacingTop=-20;whiteSpace=wrap;overflow=hidden;rounded=0;" parent="1" vertex="1">
          <mxGeometry y="460" width="380" height="120" as="geometry" />
        </mxCell>
        <mxCell id="buCZPM1QuK_6D1CQtESt-1" value="&lt;span style=&quot;color: rgb(0 , 0 , 0) ; text-align: left&quot;&gt;from IH: proxychains ./scan.sh&lt;/span&gt;&lt;br style=&quot;color: rgb(0 , 0 , 0) ; text-align: left&quot;&gt;&lt;br style=&quot;color: rgb(0 , 0 , 0) ; text-align: left&quot;&gt;&lt;span style=&quot;color: rgb(0 , 0 , 0) ; text-align: left&quot;&gt;proxychains wget -r http://10.3.0.1&lt;/span&gt;" style="shape=step;perimeter=stepPerimeter;whiteSpace=wrap;html=1;fixedSize=1;align=center;fillColor=#f5f5f5;fontColor=#333333;strokeColor=#666666;" vertex="1" parent="1">
          <mxGeometry x="-65.5" y="320" width="220" height="70" as="geometry" />
        </mxCell>
        <mxCell id="buCZPM1QuK_6D1CQtESt-2" value="3" style="ellipse;whiteSpace=wrap;html=1;aspect=fixed;fillColor=#d5e8d4;strokeColor=#82b366;" vertex="1" parent="1">
          <mxGeometry x="-80" y="310" width="30" height="30" as="geometry" />
        </mxCell>
      </root>
    </mxGraphModel>
  </diagram>
</mxfile>
